# xmcd
#
# Track frame offsets:
#	150
#	9963
#	26800
#	42395
#	52873
#	71109
#	80557
#	96828
#	107329
#	116707
#
# Disc length: 1758 seconds
#
# Revision: 0
# Processed by: cddbd v1.5.2PL0 Copyright (c) Steve Scherf et al.
# Submitted via: EasyCDDAExtractor 10.0.6.1
#
DISCID=7a06dc0a
DTITLE=Inspirations - Things Are Different Now
DYEAR=2007
DGENRE=Gospel
TTITLE0=All Washed Away
TTITLE1=It's The Cross That Carries Me
TTITLE2=That's Just God
TTITLE3=I'll Have A New Life
TTITLE4=Time Always Changes' But God Doesn'T
TTITLE5=Old Campmeeting Time
TTITLE6=In The Shelter Of His Arms
TTITLE7=My Lord's Been Walking
TTITLE8=Glory To God In The Highest
TTITLE9=It's Different Now
EXTD=
EXTT0=
EXTT1=
EXTT2=
EXTT3=
EXTT4=
EXTT5=
EXTT6=
EXTT7=
EXTT8=
EXTT9=
PLAYORDER=
